HIERARCHY
ROOT Hips
{
  OFFSET 0.0000 0.0000 0.0000
  CHANNELS 6 Xposition Yposition Zposition Zrotation Xrotation Yrotation
  JOINT LeftHip
  {
    OFFSET 5.5000 -0.0000 0.0000
    CHANNELS 3 Zrotation Xrotation Yrotation
    JOINT LeftKnee
    {
      OFFSET 0.0000 -17.5000 0.0000
      CHANNELS 3 Zrotation Xrotation Yrotation
      JOINT LeftAnkle
      {
        OFFSET 0.0000 -17.0000 -0.0000
        CHANNELS 3 Zrotation Xrotation Yrotation
        End Site
        {
            OFFSET 0.0000 -4.7000 -2.0000
        }
      }
    }
  }
  JOINT RightHip
  {
    OFFSET -5.5000 0.0000 0.0000
    CHANNELS 3 Zrotation Xrotation Yrotation
    JOINT RightKnee
    {
      OFFSET 0.0000 -17.5000 0.0000
      CHANNELS 3 Zrotation Xrotation Yrotation
      JOINT RightAnkle
      {
        OFFSET 0.0000 -17.0000 -0.0000
        CHANNELS 3 Zrotation Xrotation Yrotation
        End Site
        {
            OFFSET 0.0000 -4.7000 -2.0000
        }
      }
    }
  }
  JOINT Chest
  {
    OFFSET 0.0000 3.0000 -1.0000
    CHANNELS 3 Zrotation Xrotation Yrotation
    JOINT LeftCollar
    {
      OFFSET 0.0000 18.0000 1.0000
      CHANNELS 3 Zrotation Xrotation Yrotation
      JOINT LeftShoulder
      {
        OFFSET 6.5000 0.0000 0.0000
        CHANNELS 3 Zrotation Xrotation Yrotation
        JOINT LeftElbow
        {
          OFFSET 0.0000 -11.0000 -0.0000
          CHANNELS 3 Zrotation Xrotation Yrotation
          JOINT LeftWrist
          {
            OFFSET 0.0000 -10.5000 0.0000
            CHANNELS 3 Zrotation Xrotation Yrotation
            End Site
            {
                OFFSET 0.0000 -6.0000 0.0000
            }
          }
        }
      }
    }
    JOINT RightCollar
    {
      OFFSET 0.0000 18.0000 1.0000
      CHANNELS 3 Zrotation Xrotation Yrotation
      JOINT RightShoulder
      {
        OFFSET -6.5000 0.0000 0.0000
        CHANNELS 3 Zrotation Xrotation Yrotation
        JOINT RightElbow
        {
          OFFSET -0.0000 -11.0000 -0.0000
          CHANNELS 3 Zrotation Xrotation Yrotation
          JOINT RightWrist
          {
            OFFSET -0.0000 -10.5000 0.0000
            CHANNELS 3 Zrotation Xrotation Yrotation
            End Site
            {
                OFFSET 0.0000 -6.0000 0.0000
            }
          }
        }
      }
    }
    JOINT Neck
    {
      OFFSET 0.0000 18.0000 1.0000
      CHANNELS 3 Zrotation Xrotation Yrotation
      JOINT Head
      {
        OFFSET 0.0000 3.0000 0.0000
        CHANNELS 3 Zrotation Xrotation Yrotation
        End Site
        {
            OFFSET 0.0000 7.0000 0.0000
        }
      }
    }
  }
}
MOTION
Frames:	32
Frame Time:	0.033333
-0.8049 39.8945 -0.3309 1.03 0.29 3.31 -3.05 -8.99 -1.13 0.00 22.14 -0.21 0.37 -12.45 -1.59 1.32 -9.37 -0.01 -0.00 24.35 0.41 0.37 -12.49 -7.72 -0.34 5.69 -1.21 0.00 0.00 0.00 9.59 -13.32 -7.47 0.00 -9.88 0.95 -10.79 3.88 -27.87 0.00 0.00 0.00 -11.94 -14.69 6.55 0.00 -11.35 -1.08 16.40 4.54 14.07 0.00 0.00 0.00 -0.05 -13.71 -0.98 
-0.8049 39.8945 -0.3309 1.03 0.29 3.31 -3.05 -8.99 -1.13 0.00 22.14 -0.21 0.37 -12.45 -1.59 1.32 -9.37 -0.01 -0.00 24.35 0.41 0.37 -12.49 -7.72 -0.34 5.69 -1.21 0.00 0.00 0.00 9.59 -13.32 -7.47 0.00 -9.88 0.95 -10.79 3.88 -27.87 0.00 0.00 0.00 -11.94 -14.69 6.55 -0.00 -11.35 -1.08 16.40 4.54 14.07 0.00 0.00 0.00 -0.05 -13.70 -0.98 
-0.8049 39.8945 -0.3309 1.03 0.29 3.31 -3.05 -8.99 -1.13 0.00 22.14 -0.21 0.37 -12.45 -1.59 1.32 -9.37 -0.01 -0.00 24.35 0.41 0.37 -12.49 -7.72 -0.34 5.69 -1.21 0.00 0.00 0.00 9.59 -13.32 -7.47 -0.00 -9.88 0.95 -10.79 3.88 -27.87 0.00 0.00 0.00 -11.94 -14.69 6.55 0.00 -11.33 -1.08 16.40 4.52 14.09 0.00 0.00 0.00 -0.05 -13.67 -0.98 
-0.8049 39.8945 -0.3303 1.03 0.29 3.31 -3.05 -8.99 -1.13 0.00 22.14 -0.21 0.37 -12.45 -1.59 1.32 -9.37 -0.01 0.00 24.35 0.41 0.37 -12.49 -7.72 -0.34 5.69 -1.21 0.00 0.00 0.00 9.59 -13.32 -7.47 0.00 -9.88 0.95 -10.79 3.88 -27.87 0.00 0.00 0.00 -11.94 -14.69 6.55 -0.00 -11.34 -1.08 16.40 4.52 14.11 0.00 0.00 0.00 -0.05 -13.64 -0.99 
-0.8051 39.8960 -0.3346 1.03 0.29 3.31 -3.05 -9.00 -1.13 0.00 22.14 -0.21 0.37 -12.44 -1.59 1.32 -9.37 -0.01 -0.00 24.34 0.41 0.37 -12.48 -7.72 -0.34 5.69 -1.21 0.00 0.00 0.00 9.59 -13.32 -7.47 -0.00 -9.88 0.95 -10.79 3.87 -27.89 0.00 0.00 0.00 -11.94 -14.69 6.55 0.00 -11.37 -1.08 16.39 4.53 14.15 0.00 0.00 0.00 -0.05 -13.61 -0.99 
-0.8061 39.8981 -0.3512 1.03 0.29 3.31 -3.05 -9.02 -1.13 0.00 22.12 -0.21 0.37 -12.40 -1.59 1.32 -9.39 -0.01 0.00 24.32 0.42 0.37 -12.44 -7.73 -0.34 5.69 -1.21 0.00 0.00 0.00 9.59 -13.32 -7.47 0.00 -9.87 0.94 -10.79 3.86 -27.90 0.00 0.00 0.00 -11.94 -14.69 6.55 -0.00 -11.39 -1.09 16.38 4.53 14.21 0.00 0.00 0.00 -0.05 -13.56 -0.99 
-0.8073 39.8999 -0.3739 1.03 0.29 3.31 -3.05 -9.04 -1.13 -0.00 22.10 -0.21 0.37 -12.35 -1.59 1.32 -9.42 -0.01 0.00 24.31 0.42 0.37 -12.39 -7.73 -0.34 5.69 -1.21 0.00 0.00 0.00 9.59 -13.32 -7.47 0.00 -9.86 0.94 -10.78 3.85 -27.92 0.00 0.00 0.00 -11.95 -14.69 6.54 -0.00 -11.39 -1.09 16.38 4.53 14.28 0.00 0.00 0.00 -0.05 -13.51 -0.99 
-0.8084 39.9011 -0.3941 1.03 0.29 3.31 -3.05 -9.07 -1.12 -0.00 22.09 -0.21 0.37 -12.31 -1.60 1.32 -9.45 -0.01 0.00 24.30 0.42 0.37 -12.35 -7.73 -0.33 5.69 -1.22 0.00 0.00 0.00 9.59 -13.32 -7.47 -0.00 -9.84 0.94 -10.77 3.84 -27.96 0.00 0.00 0.00 -11.96 -14.69 6.54 0.00 -11.39 -1.09 16.37 4.52 14.34 0.00 0.00 0.00 -0.05 -13.48 -1.00 
-0.8088 39.9012 -0.4028 1.03 0.29 3.31 -3.05 -9.09 -1.12 0.00 22.09 -0.21 0.37 -12.30 -1.60 1.32 -9.46 -0.02 -0.00 24.29 0.42 0.37 -12.34 -7.73 -0.33 5.69 -1.22 0.00 0.00 0.00 9.59 -13.32 -7.47 -0.00 -9.83 0.94 -10.76 3.84 -28.02 0.00 0.00 0.00 -12.01 -14.69 6.53 0.00 -11.37 -1.08 16.36 4.51 14.42 0.00 0.00 0.00 -0.05 -13.44 -1.00 
-0.8089 39.9010 -0.4016 1.03 0.29 3.31 -3.04 -9.09 -1.12 0.00 22.09 -0.21 0.37 -12.30 -1.60 1.32 -9.46 -0.02 0.00 24.29 0.42 0.37 -12.34 -7.73 -0.33 5.69 -1.22 0.00 0.00 0.00 9.59 -13.32 -7.47 0.00 -9.81 0.94 -10.74 3.84 -28.08 0.00 0.00 0.00 -12.05 -14.69 6.52 -0.00 -11.35 -1.07 16.34 4.49 14.51 0.00 0.00 0.00 -0.05 -13.38 -1.00 
-0.8094 39.9008 -0.4009 1.03 0.29 3.31 -3.04 -9.09 -1.12 -0.00 22.09 -0.21 0.37 -12.30 -1.60 1.32 -9.46 -0.02 -0.00 24.29 0.43 0.37 -12.34 -7.73 -0.33 5.69 -1.22 0.00 0.00 0.00 9.61 -13.32 -7.47 -0.00 -9.79 0.94 -10.74 3.83 -28.15 0.00 0.00 0.00 -12.06 -14.69 6.52 -0.00 -11.34 -1.07 16.30 4.49 14.61 0.00 0.00 0.00 -0.04 -13.34 -1.00 
-0.8103 39.9006 -0.3997 1.03 0.29 3.31 -3.04 -9.09 -1.12 0.00 22.09 -0.22 0.37 -12.30 -1.59 1.32 -9.46 -0.02 -0.00 24.29 0.43 0.37 -12.34 -7.73 -0.33 5.69 -1.22 0.00 0.00 0.00 9.66 -13.32 -7.46 -0.00 -9.76 0.93 -10.76 3.82 -28.21 0.00 0.00 0.00 -12.03 -14.69 6.52 0.00 -11.33 -1.08 16.23 4.51 14.71 0.00 0.00 0.00 -0.01 -13.31 -0.99 
-0.8113 39.9004 -0.3983 1.03 0.29 3.31 -3.04 -9.09 -1.13 0.00 22.09 -0.22 0.36 -12.31 -1.59 1.32 -9.46 -0.02 0.00 24.29 0.43 0.36 -12.34 -7.73 -0.33 5.69 -1.22 0.00 0.00 0.00 9.69 -13.31 -7.45 0.00 -9.74 0.92 -10.78 3.80 -28.29 0.00 0.00 0.00 -12.00 -14.68 6.53 0.00 -11.32 -1.08 16.18 4.52 14.81 0.00 0.00 0.00 0.02 -13.25 -0.98 
-0.8124 39.9004 -0.3968 1.03 0.29 3.31 -3.04 -9.08 -1.13 0.00 22.09 -0.22 0.36 -12.31 -1.59 1.32 -9.46 -0.02 -0.00 24.29 0.43 0.36 -12.35 -7.73 -0.33 5.70 -1.22 0.00 0.00 0.00 9.72 -13.30 -7.45 0.00 -9.74 0.92 -10.78 3.78 -28.36 0.00 0.00 0.00 -11.98 -14.66 6.53 0.00 -11.32 -1.09 16.13 4.52 14.89 0.00 0.00 0.00 0.05 -13.17 -0.98 
-0.8135 39.9003 -0.3952 1.03 0.29 3.31 -3.04 -9.08 -1.13 -0.00 22.09 -0.22 0.36 -12.31 -1.59 1.32 -9.45 -0.02 -0.00 24.30 0.43 0.36 -12.35 -7.73 -0.33 5.71 -1.22 0.00 0.00 0.00 9.72 -13.30 -7.46 0.00 -9.74 0.92 -10.78 3.78 -28.42 0.00 0.00 0.00 -11.98 -14.66 6.53 -0.00 -11.32 -1.09 16.10 4.54 14.96 0.00 0.00 0.00 0.07 -13.12 -0.98 
-0.8145 39.8997 -0.3937 1.03 0.29 3.31 -3.04 -9.08 -1.13 0.00 22.10 -0.22 0.36 -12.31 -1.59 1.33 -9.45 -0.02 0.00 24.30 0.43 0.36 -12.35 -7.73 -0.33 5.71 -1.22 0.00 0.00 0.00 9.73 -13.30 -7.45 0.00 -9.74 0.93 -10.77 3.79 -28.47 0.00 0.00 0.00 -11.98 -14.67 6.53 -0.00 -11.33 -1.09 16.08 4.56 15.01 0.00 0.00 0.00 0.08 -13.10 -0.98 
-0.8155 39.8989 -0.3924 1.03 0.29 3.31 -3.04 -9.08 -1.13 -0.00 22.11 -0.21 0.36 -12.32 -1.59 1.33 -9.45 -0.02 0.00 24.30 0.43 0.36 -12.36 -7.73 -0.33 5.72 -1.22 0.00 0.00 0.00 9.73 -13.30 -7.45 0.00 -9.75 0.93 -10.77 3.80 -28.51 0.00 0.00 0.00 -11.97 -14.67 6.53 0.00 -11.33 -1.09 16.06 4.59 15.05 0.00 0.00 0.00 0.09 -13.10 -0.98 
-0.8165 39.8980 -0.3912 1.03 0.29 3.31 -3.03 -9.09 -1.13 0.00 22.13 -0.21 0.35 -12.33 -1.60 1.33 -9.45 -0.02 -0.00 24.31 0.43 0.35 -12.36 -7.73 -0.33 5.72 -1.22 0.00 0.00 0.00 9.73 -13.33 -7.45 -0.00 -9.75 0.93 -10.77 3.83 -28.55 0.00 0.00 0.00 -11.97 -14.70 6.53 0.00 -11.34 -1.09 16.06 4.63 15.08 0.00 0.00 0.00 0.10 -13.10 -0.98 
-0.8170 39.8975 -0.3896 1.02 0.29 3.31 -3.03 -9.10 -1.13 0.00 22.16 -0.21 0.35 -12.35 -1.60 1.33 -9.46 -0.02 -0.00 24.32 0.43 0.35 -12.37 -7.73 -0.33 5.72 -1.22 0.00 0.00 0.00 9.74 -13.36 -7.44 0.00 -9.78 0.94 -10.76 3.88 -28.58 0.00 0.00 0.00 -11.97 -14.73 6.52 -0.00 -11.37 -1.09 16.05 4.68 15.10 0.00 0.00 0.00 0.11 -13.07 -0.98 
-0.8172 39.8988 -0.3956 1.02 0.29 3.31 -3.03 -9.11 -1.13 -0.00 22.16 -0.21 0.35 -12.34 -1.60 1.33 -9.47 -0.02 0.00 24.31 0.43 0.35 -12.36 -7.73 -0.33 5.73 -1.22 0.00 0.00 0.00 9.73 -13.38 -7.44 -0.00 -9.80 0.94 -10.75 3.90 -28.60 0.00 0.00 0.00 -11.97 -14.75 6.52 0.00 -11.39 -1.09 16.04 4.70 15.13 0.00 0.00 0.00 0.11 -13.01 -0.98 
-0.8187 39.8999 -0.4190 1.02 0.29 3.31 -3.03 -9.15 -1.13 0.00 22.16 -0.20 0.35 -12.30 -1.61 1.34 -9.49 -0.02 -0.00 24.30 0.43 0.35 -12.32 -7.73 -0.33 5.74 -1.22 0.00 0.00 0.00 9.73 -13.42 -7.43 0.00 -9.81 0.95 -10.75 3.92 -28.63 0.00 0.00 0.00 -11.96 -14.79 6.52 -0.00 -11.40 -1.10 16.05 4.72 15.13 0.00 0.00 0.00 0.11 -12.98 -0.98 
-0.8235 39.8998 -0.4526 1.02 0.29 3.32 -3.02 -9.22 -1.12 -0.00 22.18 -0.19 0.34 -12.26 -1.64 1.35 -9.55 -0.02 0.00 24.30 0.43 0.35 -12.25 -7.74 -0.33 5.75 -1.22 0.00 0.00 0.00 9.73 -13.42 -7.41 -0.00 -9.80 0.95 -10.75 3.88 -28.67 0.00 0.00 0.00 -11.96 -14.80 6.53 -0.00 -11.39 -1.09 16.06 4.70 15.13 0.00 0.00 0.00 0.12 -12.94 -0.97 
-0.8300 39.8965 -0.4744 1.01 0.29 3.32 -3.00 -9.28 -1.11 0.00 22.23 -0.17 0.33 -12.25 -1.67 1.37 -9.60 -0.01 0.00 24.32 0.44 0.33 -12.23 -7.77 -0.33 5.76 -1.21 0.00 0.00 0.00 9.73 -13.40 -7.41 0.00 -9.78 0.94 -10.75 3.83 -28.68 0.00 0.00 0.00 -11.95 -14.76 6.55 0.00 -11.35 -1.09 16.06 4.61 15.14 0.00 0.00 0.00 0.13 -12.88 -0.96 
-0.8326 39.8927 -0.4759 1.01 0.29 3.33 -2.99 -9.33 -1.10 -0.00 22.31 -0.16 0.32 -12.28 -1.70 1.37 -9.62 -0.01 -0.00 24.37 0.44 0.33 -12.26 -7.77 -0.33 5.76 -1.20 0.00 0.00 0.00 9.73 -13.39 -7.43 -0.00 -9.76 0.93 -10.75 3.81 -28.68 0.00 0.00 0.00 -11.94 -14.71 6.55 -0.00 -11.31 -1.08 16.07 4.54 15.16 0.00 0.00 0.00 0.13 -12.84 -0.96 
-0.8319 39.8880 -0.4660 1.01 0.29 3.34 -2.99 -9.34 -1.10 -0.00 22.38 -0.16 0.32 -12.33 -1.70 1.37 -9.63 0.00 -0.00 24.43 0.43 0.34 -12.30 -7.78 -0.32 5.77 -1.20 0.00 0.00 0.00 9.73 -13.37 -7.45 0.00 -9.73 0.92 -10.75 3.76 -28.67 0.00 0.00 0.00 -11.94 -14.69 6.55 -0.00 -11.30 -1.07 16.08 4.53 15.17 0.00 0.00 0.00 0.14 -12.83 -0.97 
-0.8307 39.8832 -0.4412 1.01 0.29 3.34 -3.00 -9.33 -1.10 0.00 22.45 -0.16 0.32 -12.41 -1.71 1.37 -9.61 0.00 0.00 24.48 0.42 0.34 -12.37 -7.78 -0.32 5.78 -1.20 0.00 0.00 0.00 9.73 -13.35 -7.47 0.00 -9.72 0.91 -10.75 3.74 -28.67 0.00 0.00 0.00 -11.94 -14.69 6.55 -0.00 -11.31 -1.07 16.12 4.55 15.17 0.00 0.00 0.00 0.13 -12.83 -0.97 
-0.8294 39.8791 -0.4135 1.01 0.29 3.35 -3.00 -9.32 -1.11 -0.00 22.52 -0.15 0.32 -12.49 -1.71 1.37 -9.59 0.01 -0.00 24.53 0.42 0.34 -12.45 -7.78 -0.31 5.78 -1.20 0.00 0.00 0.00 9.73 -13.33 -7.49 -0.00 -9.69 0.91 -10.75 3.71 -28.66 0.00 0.00 0.00 -11.94 -14.67 6.55 0.00 -11.30 -1.07 16.15 4.55 15.19 0.00 0.00 0.00 0.13 -12.82 -0.98 
-0.8280 39.8756 -0.3895 1.01 0.29 3.35 -3.00 -9.30 -1.11 0.00 22.57 -0.15 0.32 -12.56 -1.71 1.38 -9.56 -0.00 0.00 24.57 0.41 0.34 -12.50 -7.78 -0.31 5.79 -1.21 0.00 0.00 0.00 9.73 -13.29 -7.50 -0.00 -9.66 0.91 -10.75 3.67 -28.66 0.00 0.00 0.00 -11.94 -14.64 6.56 -0.00 -11.27 -1.06 16.18 4.52 15.21 0.00 0.00 0.00 0.13 -12.81 -0.99 
-0.8269 39.8714 -0.3640 1.01 0.28 3.35 -3.00 -9.28 -1.12 0.00 22.62 -0.15 0.32 -12.62 -1.71 1.37 -9.54 0.00 0.00 24.61 0.41 0.34 -12.57 -7.78 -0.31 5.79 -1.21 0.00 0.00 0.00 9.73 -13.26 -7.50 -0.00 -9.64 0.91 -10.75 3.66 -28.66 0.00 0.00 0.00 -11.95 -14.61 6.56 0.00 -11.26 -1.06 16.21 4.52 15.21 0.00 0.00 0.00 0.13 -12.82 -0.99 
-0.8206 39.8679 -0.3320 1.01 0.28 3.36 -3.01 -9.25 -1.12 -0.00 22.66 -0.15 0.33 -12.70 -1.71 1.37 -9.50 -0.00 -0.00 24.65 0.41 0.35 -12.65 -7.78 -0.31 5.79 -1.21 0.00 0.00 0.00 9.72 -13.23 -7.51 0.00 -9.64 0.91 -10.74 3.67 -28.67 0.00 0.00 0.00 -11.95 -14.59 6.57 -0.00 -11.26 -1.06 16.24 4.53 15.21 0.00 0.00 0.00 0.12 -12.87 -0.99 
-0.8102 39.8626 -0.2926 1.01 0.28 3.36 -3.03 -9.20 -1.13 0.00 22.70 -0.15 0.35 -12.79 -1.70 1.36 -9.46 0.00 0.00 24.69 0.40 0.36 -12.74 -7.77 -0.31 5.79 -1.21 0.00 0.00 0.00 9.72 -13.22 -7.52 -0.00 -9.66 0.91 -10.74 3.69 -28.67 0.00 0.00 0.00 -11.96 -14.58 6.58 -0.00 -11.28 -1.06 16.26 4.56 15.21 0.00 0.00 0.00 0.12 -12.94 -0.98 
-0.8065 39.8584 -0.2562 1.01 0.28 3.36 -3.03 -9.16 -1.13 -0.00 22.75 -0.14 0.35 -12.88 -1.70 1.35 -9.42 0.01 0.00 24.74 0.40 0.36 -12.83 -7.77 -0.31 5.79 -1.22 0.00 0.00 0.00 9.72 -13.19 -7.52 -0.00 -9.69 0.92 -10.74 3.72 -28.63 0.00 0.00 0.00 -11.96 -14.54 6.59 -0.00 -11.34 -1.08 16.28 4.58 15.22 0.00 0.00 0.00 0.11 -12.99 -0.98 
